<?xml version="1.0" standalone="no"?>
<!DOCTYPE svg PUBLIC "-//W3C//DTD SVG 20010904//EN"
 "http://www.w3.org/TR/2001/REC-SVG-20010904/DTD/svg10.dtd">
<svg version="1.0" xmlns="http://www.w3.org/2000/svg"
 width="360.000000pt" height="360.000000pt" viewBox="0 0 360.000000 360.000000"
 preserveAspectRatio="xMidYMid meet">

<g transform="translate(0.000000,360.000000) scale(0.100000,-0.100000)"
fill="#000000" stroke="none">
<path d="M0 3489 c0 -103 1 -110 17 -98 9 8 26 14 38 14 17 1 21 -4 19 -21 -1
-13 -5 -28 -9 -33 -8 -15 -38 -14 -53 1 -9 9 -12 -26 -12 -159 0 -143 2 -172
15 -177 19 -7 19 -45 0 -52 -13 -5 -15 -188 -15 -1485 l0 -1479 704 0 704 0 6
24 c4 18 11 23 25 19 13 -3 18 -10 14 -21 -4 -10 -2 -13 5 -8 7 4 12 2 12 -3
0 -8 103 -11 324 -11 321 0 325 0 340 21 14 20 18 21 48 9 18 -7 37 -17 42
-22 6 -4 317 -8 693 -8 l683 0 0 1456 0 1455 -30 26 c-33 27 -38 54 -15 73 8
7 15 26 15 42 0 16 7 45 15 65 12 28 15 83 15 259 l0 224 -253 0 -252 0 -125
-122 c-222 -217 -366 -344 -522 -462 l-36 -27 -28 50 c-15 28 -31 51 -36 51
-5 0 -6 5 -3 10 3 6 -1 13 -9 16 -9 3 -16 12 -16 20 0 8 -9 22 -19 31 -11 9
-18 20 -16 24 3 3 -26 38 -64 75 -77 77 -101 98 -101 87 0 -4 -6 2 -14 13 -16
23 -125 80 -184 95 -4 2 -25 8 -47 14 -66 20 -199 11 -287 -18 -82 -27 -191
-77 -196 -89 -2 -5 -10 -8 -18 -8 -15 0 -18 26 -14 163 l2 78 -78 -3 c-51 -2
-79 -7 -82 -15 -2 -8 5 -13 17 -13 27 0 53 -38 41 -60 -6 -11 -5 -21 2 -28 9
-9 8 -12 -5 -12 -9 0 -17 5 -17 10 0 6 -4 10 -10 10 -22 0 -8 -22 20 -31 25
-9 30 -16 30 -43 0 -33 -34 -68 -43 -43 -5 16 -34 -13 -47 -47 -5 -15 -15 -25
-21 -24 -6 2 -14 -3 -17 -11 -3 -10 0 -12 12 -8 9 4 16 2 16 -4 0 -6 5 -7 12
-3 6 4 8 3 5 -3 -3 -5 -3 -23 2 -39 15 -57 -31 -121 -67 -92 -13 11 -15 10
-10 -9 4 -13 2 -26 -3 -29 -5 -3 -9 2 -9 10 0 9 -7 16 -16 16 -9 0 -22 7 -29
16 -10 14 -14 15 -34 3 -20 -12 -24 -12 -36 5 -13 17 -15 17 -21 3 -3 -10 -15
-17 -25 -17 -10 0 -19 -4 -19 -9 0 -12 -111 -4 -124 9 -17 17 7 45 40 46 16 1
37 5 47 9 9 4 26 5 37 2 11 -3 18 -2 16 2 -3 4 4 13 14 21 23 17 17 30 -15 30
-20 0 -25 7 -31 36 -8 44 7 64 36 46 11 -6 32 -12 46 -12 23 0 26 3 21 27 -7
38 1 53 29 53 15 0 24 6 24 16 0 8 4 13 9 9 5 -3 12 -1 16 5 9 15 28 12 19 -2
-6 -10 -4 -10 7 0 7 6 27 12 44 12 44 0 54 10 37 40 l-14 25 6 -26 c5 -23 3
-25 -35 -28 -40 -2 -40 -2 -37 31 3 28 7 33 29 33 18 -1 25 4 22 12 -3 7 2 16
11 19 20 8 21 23 2 30 -8 3 -28 -8 -45 -27 l-31 -32 -18 41 c-13 32 -22 42
-41 42 -17 0 -22 -4 -17 -16 20 -52 19 -64 -7 -64 -14 0 -27 -7 -31 -15 -6
-17 -36 -21 -36 -5 0 6 -19 11 -42 11 l-43 2 45 7 c25 4 49 5 54 2 5 -3 5 1 0
9 -14 22 -15 47 -1 46 30 -1 47 4 47 13 0 14 -352 13 -404 -2 -22 -6 -57 -23
-76 -37 -51 -39 -96 -19 -69 30 10 20 7 20 -130 18 -77 -1 -138 -6 -135 -10
10 -16 -6 -46 -24 -44 -27 2 -42 14 -42 36 0 17 -7 19 -70 19 l-70 0 0 -111z
m723 5 c-9 -24 -38 -12 -41 18 -2 19 2 27 15 30 20 4 36 -23 26 -48z m-269 11
c-4 -8 -10 -15 -14 -15 -4 0 -10 7 -14 15 -4 10 1 15 14 15 13 0 18 -5 14 -15z
m-339 -25 c0 -29 -15 -35 -40 -15 -20 15 -20 15 0 30 25 20 40 14 40 -15z
m148 -20 c4 -16 0 -20 -19 -20 -17 0 -24 6 -24 19 0 18 18 32 31 25 4 -2 9
-13 12 -24z m307 -6 c0 -43 -52 -57 -66 -19 -9 22 14 45 42 43 17 -2 24 -8 24
-24z m270 1 c11 -13 7 -15 -29 -15 -38 0 -50 8 -34 23 12 12 50 7 63 -8z
m-442 -31 c-3 -19 -34 -41 -43 -32 -4 4 -4 16 0 27 8 25 48 29 43 5z m372 1
c9 -11 9 -19 2 -28 -9 -10 -6 -17 8 -27 22 -16 26 -45 10 -55 -6 -4 -8 -15 -5
-24 3 -10 -1 -33 -9 -52 -9 -19 -15 -26 -16 -16 0 9 -6 17 -14 17 -8 0 -22 10
-31 22 -14 21 -14 24 7 40 13 10 17 18 10 18 -7 0 -11 4 -7 9 3 5 -4 16 -16
24 -11 9 -16 16 -9 19 6 2 8 11 5 21 -4 9 -11 14 -16 11 -16 -10 -9 9 9 22 23
18 57 17 72 -1z m-100 -85 c0 -10 -6 -23 -13 -29 -21 -17 -45 31 -26 52 17 18
39 4 39 -23z m211 10 c24 -13 25 -46 1 -59 -37 -20 -70 27 -40 57 15 15 15 15
39 2z m878 -14 c58 -3 101 -1 101 4 0 6 10 6 25 0 14 -5 25 -7 25 -3 0 3 8 -1
18 -10 10 -10 21 -14 25 -11 6 7 148 -40 191 -63 53 -29 152 -121 141 -131 -2
-2 6 -13 18 -23 13 -11 15 -17 6 -14 -13 5 -15 -1 -11 -32 2 -21 3 -45 2 -53
-1 -8 -2 -36 -3 -62 0 -27 -4 -48 -8 -48 -5 0 -9 -10 -9 -22 -1 -20 -2 -21
-13 -8 -14 18 -23 20 -79 20 -110 0 -151 -7 -170 -30 -17 -21 -22 -19 -19 5 1
6 -8 -1 -19 -14 -11 -13 -35 -31 -52 -41 -24 -13 -33 -25 -36 -50 -2 -19 -12
-50 -22 -71 -11 -20 -19 -54 -18 -75 1 -22 -2 -65 -7 -97 -6 -45 -4 -68 10
-102 9 -25 21 -45 26 -45 21 0 6 -25 -42 -69 -42 -38 -58 -46 -92 -47 -31 -1
-49 5 -67 21 -24 22 -27 22 -62 8 -50 -20 -62 -62 -21 -77 13 -5 14 -4 4 8
-18 21 0 26 47 14 25 -6 44 -18 47 -28 3 -10 12 -21 20 -24 31 -12 12 -21 -47
-23 -34 -2 -65 -8 -69 -14 -3 -6 -10 -10 -15 -10 -5 0 -17 -2 -26 -5 -10 -3
-26 0 -37 6 -15 8 -23 7 -33 -4 -10 -10 -17 -11 -30 -2 -13 8 -23 8 -38 -2
-17 -10 -20 -10 -20 3 0 14 -4 14 -31 -2 -39 -23 -57 -48 -63 -93 -6 -47 -17
-80 -26 -80 -9 0 -31 25 -27 31 1 2 -3 -1 -9 -8 -14 -16 -28 -17 -18 -1 5 8 0
9 -14 6 -12 -4 -20 -3 -17 2 3 4 -7 15 -20 24 -14 9 -23 21 -20 26 4 6 1 10
-5 10 -7 0 -9 7 -6 16 4 12 2 15 -9 10 -17 -6 -21 19 -5 29 6 3 10 13 10 21 0
10 -5 12 -12 8 -8 -5 -7 0 2 11 9 11 10 16 3 11 -9 -5 -13 2 -14 26 -3 92 -9
132 -21 139 -11 7 -11 9 1 9 10 0 12 10 7 43 -11 67 -10 157 3 232 6 39 13
117 16 175 7 172 11 213 24 257 11 41 93 158 136 196 27 24 125 89 139 92 6 1
24 7 39 13 16 7 54 12 85 13 31 0 66 4 77 8 11 5 23 7 27 5 3 -2 52 -6 107 -8z
m-1421 -27 c4 -30 -22 -46 -44 -28 -17 14 -18 31 -2 47 19 19 43 9 46 -19z
m127 10 c4 -5 4 -21 1 -35 -5 -19 -13 -24 -36 -24 -31 0 -38 17 -24 54 7 18
49 22 59 5z m-200 -49 c0 -18 -6 -26 -23 -28 -24 -4 -38 18 -28 44 3 9 15 14
28 12 17 -2 23 -10 23 -28z m-139 -15 c6 -15 -11 -45 -26 -45 -14 0 -20 32 -9
46 15 18 28 18 35 -1z m1114 11 c0 -2 -7 -7 -16 -10 -8 -3 -12 -2 -9 4 6 10
25 14 25 6z m-555 -51 c0 -25 -4 -31 -26 -33 -30 -4 -40 13 -28 46 14 36 54
26 54 -13z m-121 -19 c9 -13 7 -20 -8 -31 -23 -17 -46 -4 -46 25 0 32 36 36
54 6z m166 -92 c0 -8 -4 -12 -10 -9 -5 3 -10 10 -10 16 0 5 5 9 10 9 6 0 10
-7 10 -16z m380 -47 c0 -11 -8 -26 -17 -33 -16 -12 -16 -15 -3 -25 13 -10 13
-10 0 -6 -30 9 -40 -18 -19 -52 10 -17 17 -32 14 -32 -9 -2 -25 -6 -30 -8 -3
0 -1 -9 4 -19 14 -26 2 -62 -20 -62 -10 0 -21 5 -24 10 -10 16 -22 12 -28 -11
-4 -15 -12 -20 -29 -17 -32 4 -38 45 -7 56 l22 9 -24 16 c-17 13 -19 17 -7 17
18 0 32 26 18 35 -4 3 -15 -2 -23 -10 -23 -22 -27 -19 -27 25 0 43 24 66 50
50 9 -5 19 -5 27 2 10 8 13 5 13 -15 0 -14 5 -29 10 -32 6 -4 8 -11 5 -16 -4
-5 -4 -9 -1 -9 11 0 32 56 29 75 -3 19 -3 19 5 1 12 -27 26 -3 18 29 -8 32 13
68 31 53 7 -6 13 -20 13 -31z m-80 -52 c0 -8 -4 -15 -10 -15 -5 0 -7 7 -4 15
4 8 8 15 10 15 2 0 4 -7 4 -15z m1145 -257 c28 -12 37 -55 9 -44 -9 3 -28 8
-42 11 l-27 5 25 -12 c14 -6 26 -13 28 -14 1 -1 4 -10 7 -22 3 -18 1 -19 -28
-11 -44 13 -145 -8 -182 -37 -39 -31 -25 -42 21 -15 20 12 37 21 38 19 1 -2 7
-15 14 -30 13 -32 53 -46 91 -31 34 12 50 7 44 -16 -3 -13 2 -20 21 -25 17 -4
23 -11 20 -21 -4 -8 -2 -15 3 -15 6 0 15 -10 22 -22 11 -23 11 -23 6 2 l-6 25
19 -22 c12 -14 26 -20 39 -17 11 3 24 -1 30 -8 13 -17 26 -81 14 -74 -9 6 -8
-55 2 -94 4 -14 4 -19 1 -12 -3 6 -12 12 -20 12 -10 0 -13 -7 -8 -25 5 -19 2
-25 -10 -25 -9 0 -15 -6 -14 -12 2 -7 -4 -11 -12 -10 -8 2 -12 1 -8 -3 4 -4
-2 -24 -13 -43 -21 -40 -28 -80 -8 -52 8 11 9 9 3 -10 -15 -52 -49 -51 -127 3
-11 8 -20 9 -25 2 -9 -13 -35 -19 -28 -6 3 5 -3 11 -14 14 -12 3 -18 1 -14 -5
4 -7 0 -7 -12 0 -11 5 -39 8 -64 7 -25 -2 -52 1 -60 6 -8 5 -10 9 -5 9 6 0 4
4 -3 8 -8 6 -1 13 23 22 19 7 36 19 39 25 8 21 -12 87 -35 119 -13 18 -16 25
-6 18 15 -12 15 -11 7 20 -12 40 -12 51 -2 45 4 -3 5 19 4 49 -2 30 -8 54 -13
54 -5 0 -9 9 -9 20 0 11 -4 20 -10 20 -5 0 -10 7 -10 16 0 8 4 13 9 10 4 -3 6
5 4 18 -5 26 12 66 28 66 5 0 33 16 62 35 28 19 47 35 42 35 -6 0 -30 -14 -54
-30 -24 -16 -47 -28 -51 -25 -4 3 -11 -2 -14 -11 -4 -9 -9 -14 -13 -10 -3 3 2
15 12 27 15 15 16 22 7 28 -12 7 10 19 108 57 44 16 111 18 145 2z m720 -8
c34 -13 28 -32 -14 -44 -43 -12 -110 16 -91 39 14 17 67 20 105 5z m-800 -99
c3 -5 1 -12 -5 -16 -5 -3 -10 1 -10 9 0 18 6 21 15 7z m803 -117 c12 -4 22
-11 22 -17 0 -6 21 -33 47 -59 l47 -48 -29 0 c-69 1 -237 30 -251 45 -9 8 -19
15 -24 15 -4 0 -10 7 -14 15 -8 21 25 36 103 45 36 4 68 8 71 9 3 0 15 -2 28
-5z m-1835 -70 c8 -43 -1 -48 -29 -16 l-23 27 -1 -27 c0 -16 -4 -28 -10 -28
-22 0 4 77 28 83 22 5 28 -2 35 -39z m1407 -13 c0 -5 -7 -14 -15 -21 -12 -10
-15 -10 -15 2 0 8 3 18 7 21 9 10 23 9 23 -2z m-1420 -46 c4 3 10 -11 12 -31
3 -25 -1 -39 -12 -47 -9 -7 -20 -19 -25 -27 -8 -13 -7 -13 9 -1 16 13 17 12
10 -15 -4 -16 -13 -40 -20 -54 l-14 -25 0 30 c-1 17 -3 63 -6 104 -4 48 -2 71
4 67 6 -3 14 -1 18 6 6 9 9 9 12 0 2 -7 7 -10 12 -7z m1465 -85 c22 0 39 -28
26 -44 -9 -11 -6 -18 16 -33 33 -24 106 -43 133 -36 38 10 226 -78 255 -120
21 -30 19 -37 -11 -37 -22 0 -25 -4 -21 -20 4 -18 2 -20 -16 -14 -40 12 -101
53 -165 109 -65 57 -98 68 -109 38 -4 -10 -20 -31 -35 -48 -45 -48 -41 -55 84
-143 124 -89 208 -183 236 -264 12 -36 22 -72 22 -80 0 -8 9 -23 20 -33 24
-22 26 -52 3 -85 -34 -50 -63 -54 -63 -9 0 17 -17 73 -39 123 -21 50 -41 103
-44 117 -8 32 -142 171 -188 194 -19 10 -53 31 -75 46 -23 16 -45 25 -49 21
-5 -4 -5 1 -2 11 4 10 2 17 -5 17 -7 0 -4 6 6 13 17 13 17 16 1 63 -19 55 -29
180 -19 234 l7 35 9 -27 c5 -16 15 -28 23 -28z m555 -29 c110 -25 125 -31 128
-50 4 -27 -18 -36 -61 -22 -18 6 -51 13 -72 16 -59 6 -105 20 -152 45 -92 48
-28 53 157 11z m-845 -281 c0 -7 -7 -16 -15 -18 -13 -4 -13 -3 -2 10 9 11 9
18 2 21 -6 3 -5 4 2 3 7 -2 13 -9 13 -16z m-470 -20 c3 -5 2 -10 -4 -10 -5 0
-13 5 -16 10 -3 6 -2 10 4 10 5 0 13 -4 16 -10z m-1 -33 c28 1 56 -3 61 -7 6
-5 13 -8 18 -8 34 -1 65 -15 60 -28 -3 -9 -9 -11 -17 -6 -11 9 -22 9 -63 -4
-13 -3 -23 -2 -23 3 0 5 -9 9 -20 9 -11 0 -20 -4 -20 -8 0 -5 -9 -4 -20 2 -11
6 -26 8 -32 3 -7 -4 -24 -7 -38 -7 -19 -1 -26 -7 -30 -31 -3 -16 0 -41 7 -55
12 -23 11 -25 -11 -28 -13 -2 -27 -10 -30 -19 -6 -14 -4 -14 11 -2 10 7 6 0
-9 -17 -16 -17 -28 -37 -28 -46 0 -23 -26 -42 -36 -27 -5 9 -14 4 -30 -16 -13
-17 -22 -22 -20 -13 1 9 7 23 14 31 10 12 7 15 -19 21 -16 3 -28 10 -25 15 3
4 -8 7 -25 5 -18 -2 -28 0 -24 6 4 6 0 13 -9 16 -8 3 -17 12 -20 20 -4 10 -2
12 6 8 8 -5 9 1 4 21 -5 18 -2 35 10 52 9 14 11 22 5 19 -13 -9 -15 33 -2 66
8 23 11 23 145 22 77 -1 136 3 136 8 0 5 5 6 12 2 6 -4 34 -7 62 -7z m361 -47
c3 -5 0 -10 -7 -11 -10 0 -11 -2 0 -6 9 -4 10 -8 2 -18 -8 -10 -8 -15 1 -21 8
-5 9 -3 4 6 -5 8 -4 11 3 7 5 -4 9 -15 7 -25 -2 -9 -4 -21 -4 -25 -1 -5 -7 -5
-13 0 -19 11 -38 12 -38 2 0 -5 4 -9 9 -9 5 0 12 -7 15 -16 5 -12 2 -15 -10
-10 -13 5 -14 4 -5 -7 9 -12 3 -12 -37 -2 -34 9 -52 10 -67 2 -11 -6 -23 -10
-27 -9 -5 1 -7 -1 -5 -5 1 -5 -1 -9 -5 -10 -18 -6 -28 -2 -28 11 0 8 -5 18
-12 22 -7 5 -8 3 -3 -6 5 -9 4 -11 -3 -6 -7 4 -8 15 -2 30 5 14 5 27 -1 33 -6
6 -4 14 6 23 12 10 15 10 15 0 0 -7 9 -3 20 10 13 15 32 23 57 24 59 3 65 -1
47 -37 -11 -21 -12 -28 -3 -19 23 21 33 13 13 -10 -19 -23 -19 -23 1 -7 11 9
27 19 35 22 12 4 12 6 -2 6 -26 1 -32 21 -12 37 11 9 13 13 7 9 -7 -3 -13 -2
-13 4 0 18 45 27 55 11z m541 -157 c58 -73 104 -167 104 -214 0 -32 -38 -161
-52 -174 -3 -3 -18 -1 -33 5 -21 8 -26 15 -22 33 3 12 -1 31 -9 42 -14 19 -15
18 -9 -17 4 -21 5 -38 3 -38 -3 0 -17 11 -32 25 -27 25 -35 47 -15 43 6 -2 13
2 16 9 3 7 -4 10 -19 6 -18 -4 -20 -3 -8 6 8 6 23 11 33 11 9 0 17 5 17 11 0
7 -10 9 -24 7 -30 -6 -35 14 -26 96 3 31 3 59 -2 62 -4 3 -3 15 1 27 5 12 6
37 4 54 -6 37 1 63 17 63 5 0 30 -26 56 -57z m-656 7 c0 -5 -7 -6 -17 -3 -12
5 -14 3 -8 -7 5 -9 4 -11 -4 -6 -6 4 -9 12 -6 17 8 12 35 12 35 -1z m-246 -59
c-4 -14 -6 -37 -6 -51 l0 -24 -19 24 c-19 26 -22 65 -6 88 16 21 38 -6 31 -37z
m-274 -17 c0 -3 -4 -3 -9 1 -5 3 -12 1 -16 -5 -9 -15 -25 -2 -19 15 5 11 11
12 25 4 10 -5 19 -12 19 -15z m-33 -296 c-3 -8 -6 -5 -6 6 -1 11 2 17 5 13 3
-3 4 -12 1 -19z m-104 -313 c-3 -9 -8 -14 -10 -11 -3 3 -2 9 2 15 9 16 15 13
8 -4z m14 -277 c-3 -7 -5 -2 -5 12 0 14 2 19 5 13 2 -7 2 -19 0 -25z m38 -28
c10 -11 16 -20 13 -20 -3 0 -13 9 -23 20 -10 11 -16 20 -13 20 3 0 13 -9 23
-20z m34 -300 c0 -9 -4 -8 -9 5 -5 11 -9 27 -9 35 0 9 4 8 9 -5 5 -11 9 -27 9
-35z m-142 -12 c-3 -8 -6 -5 -6 6 -1 11 2 17 5 13 3 -3 4 -12 1 -19z m187 -14
c3 -8 2 -12 -4 -9 -6 3 -10 10 -10 16 0 14 7 11 14 -7z m-419 -24 c-3 -5 -12
-10 -18 -10 -7 0 -6 4 3 10 19 12 23 12 15 0z m142 -82 c-3 -8 -6 -5 -6 6 -1
11 2 17 5 13 3 -3 4 -12 1 -19z m306 -83 c-3 -9 -8 -14 -10 -11 -3 3 -2 9 2
15 9 16 15 13 8 -4z m-122 -18 c-10 -9 -11 -8 -5 6 3 10 9 15 12 12 3 -3 0
-11 -7 -18z m74 -96 c-21 -43 -29 -39 -8 4 9 19 18 33 21 31 2 -2 -4 -18 -13
-35z m168 -46 c28 2 29 0 31 -46 l2 -26 -78 1 c-43 0 -78 5 -78 9 0 5 7 6 16
3 13 -5 15 -1 10 18 -5 22 7 36 36 40 3 1 10 4 14 9 4 4 10 4 13 -1 3 -5 18
-8 34 -7z m182 5 c-3 -5 -1 -10 5 -10 6 0 8 -4 5 -10 -3 -6 1 -7 9 -4 9 3 16
1 16 -6 0 -15 -72 -9 -77 7 -3 7 3 9 17 6 16 -4 19 -2 14 11 -3 9 -1 16 6 16
6 0 8 -4 5 -10z m82 -16 c-3 -3 -12 -4 -19 -1 -8 3 -5 6 6 6 11 1 17 -2 13 -5z
m152 -23 c8 -5 9 -11 3 -15 -6 -3 -13 -2 -17 4 -4 6 -11 8 -16 4 -5 -3 -6 -10
-3 -16 4 -7 2 -8 -4 -4 -13 8 -4 36 12 36 6 0 17 -4 25 -9z"/>
<path d="M1504 2891 c3 -3 -45 -6 -104 -5 -60 0 -107 -3 -104 -8 3 -4 -2 -5
-10 -2 -8 3 -28 -2 -45 -11 -34 -17 -41 -27 -13 -20 9 3 2 -2 -16 -10 -26 -12
-31 -19 -23 -29 13 -16 4 -27 -16 -19 -12 5 -13 2 -6 -13 11 -22 11 -34 0 -51
-6 -9 -2 -13 12 -13 12 0 21 5 21 10 0 6 7 10 16 10 8 0 13 4 10 9 -8 13 25
38 63 46 23 5 31 4 27 -4 -4 -6 -2 -11 3 -11 6 0 11 7 11 15 0 18 12 19 28 3
9 -9 12 -9 12 1 0 11 14 12 68 7 80 -7 120 -14 141 -25 9 -4 22 -6 29 -5 6 1
18 2 25 3 7 1 8 4 2 9 -5 4 -11 16 -13 26 -7 37 -33 64 -77 78 -24 8 -43 12
-41 9z"/>
<path d="M1520 2733 c14 -9 27 -18 29 -19 2 -2 -4 -10 -12 -19 -12 -12 -22
-13 -42 -5 -40 15 -77 12 -120 -10 -47 -24 -45 -24 -45 -6 0 8 14 26 31 40 37
32 23 35 -17 4 -33 -27 -94 -92 -89 -96 2 -2 13 2 25 8 21 11 21 11 4 -14 -13
-21 -14 -25 -2 -21 8 3 27 1 42 -5 15 -5 25 -6 21 -1 -3 6 1 13 8 18 7 4 17
17 21 27 6 18 9 17 27 -13 17 -28 24 -32 57 -29 30 2 40 9 52 34 l16 30 29
-18 c41 -25 45 -23 39 15 -6 32 -63 97 -86 97 -7 0 -1 -8 12 -17z m-60 -63 c0
-5 -4 -10 -10 -10 -5 0 -10 5 -10 10 0 6 5 10 10 10 6 0 10 -4 10 -10z"/>
<path d="M1160 2685 c-7 -9 -10 -18 -6 -22 3 -3 6 -1 6 5 0 7 9 12 20 12 11 0
20 5 20 10 0 15 -26 12 -40 -5z"/>
<path d="M1151 2634 c0 -11 3 -14 6 -6 3 7 2 16 -1 19 -3 4 -6 -2 -5 -13z"/>
<path d="M1137 2581 c-4 -17 -3 -21 5 -13 5 5 8 16 6 23 -3 8 -7 3 -11 -10z"/>
<path d="M1131 2534 c0 -11 3 -14 6 -6 3 7 2 16 -1 19 -3 4 -6 -2 -5 -13z"/>
<path d="M1121 2474 c0 -11 3 -14 6 -6 3 7 2 16 -1 19 -3 4 -6 -2 -5 -13z"/>
<path d="M1126 2197 c3 -10 9 -15 12 -12 3 3 0 11 -7 18 -10 9 -11 8 -5 -6z"/>
<path d="M1275 1969 c-4 -6 -5 -12 -2 -15 2 -3 7 2 10 11 7 17 1 20 -8 4z"/>
<path d="M976 2964 c-8 -20 -4 -25 11 -16 7 4 9 13 4 21 -6 10 -10 9 -15 -5z"/>
<path d="M1040 2920 c-9 -6 -10 -10 -3 -10 6 0 15 5 18 10 8 12 4 12 -15 0z"/>
<path d="M2100 2530 c0 -5 5 -10 11 -10 5 0 7 5 4 10 -3 6 -8 10 -11 10 -2 0
-4 -4 -4 -10z"/>
<path d="M1730 1720 c0 -5 5 -10 11 -10 5 0 7 5 4 10 -3 6 -8 10 -11 10 -2 0
-4 -4 -4 -10z"/>
<path d="M1550 60 c-8 -5 -11 -12 -7 -16 4 -4 13 -2 19 4 15 15 7 24 -12 12z"/>
<path d="M532 3584 c10 -10 20 -15 24 -12 3 4 -5 12 -18 18 -22 12 -22 12 -6
-6z"/>
<path d="M1150 3414 c0 -8 5 -12 10 -9 6 3 10 10 10 16 0 5 -4 9 -10 9 -5 0
-10 -7 -10 -16z"/>
<path d="M1085 3337 c-5 -7 -9 -21 -9 -32 4 -56 6 -60 11 -45 4 8 13 21 22 28
14 11 14 11 -1 6 -15 -5 -17 -2 -12 25 7 33 5 37 -11 18z"/>
<path d="M1057 3233 c-10 -9 -9 -23 2 -23 5 0 11 7 15 15 5 15 -5 20 -17 8z"/>
<path d="M1018 3223 c7 -3 16 -2 19 1 4 3 -2 6 -13 5 -11 0 -14 -3 -6 -6z"/>
<path d="M895 3180 c3 -5 10 -10 16 -10 5 0 9 5 9 10 0 6 -7 10 -16 10 -8 0
-12 -4 -9 -10z"/>
</g>
</svg>
